<?xml version="1.0" encoding="UTF-8"?>
<svg id="Layer_1" data-name="Layer 1" xmlns="http://www.w3.org/2000/svg" xmlns:xlink="http://www.w3.org/1999/xlink" viewBox="0 0 2048 2048">
  <defs>
    <style>
      .cls-1 {
        fill: url(#linear-gradient-2);
      }

      .cls-2 {
        fill: #fff;
      }

      .cls-3 {
        fill: url(#linear-gradient-4);
      }

      .cls-4 {
        fill: #f1bcd4;
      }

      .cls-5 {
        fill: url(#linear-gradient-3);
      }

      .cls-6 {
        fill: #f18fbb;
      }

      .cls-7 {
        fill: url(#linear-gradient);
      }
    </style>
    <linearGradient id="linear-gradient" x1="237.92" y1="-115.89" x2="956.27" y2="986.15" gradientUnits="userSpaceOnUse">
      <stop offset="0" stop-color="#fdef7d"/>
      <stop offset="0" stop-color="#f1707b"/>
      <stop offset="1" stop-color="#f5968a"/>
    </linearGradient>
    <linearGradient id="linear-gradient-2" x1="891.72" y1="899.94" x2="1957.49" y2="1927.28" xlink:href="#linear-gradient"/>
    <linearGradient id="linear-gradient-3" x1="-76.58" y1="949.65" x2="795.79" y2="1907.85" xlink:href="#linear-gradient"/>
    <linearGradient id="linear-gradient-4" x1="825.83" y1="-70.66" x2="1806.94" y2="1023.23" xlink:href="#linear-gradient"/>
  </defs>
  <g id="LOGO">
    <path class="cls-7" d="M947.75,56.64v245.46c0,17.96-14.48,32.45-32.24,32.64l-268.35.97c-6.77.19-12.18,5.6-12.18,12.37v581.77c0,17.97-14.5,32.66-32.28,32.66h-247.85c-17.95,0-32.64-14.69-32.64-32.64V346.91c0-6.72-5.45-12.17-12.17-12.17H42.78c-17.76,0-32.24-14.68-32.24-32.64v-160.87c0-64.7,52.12-117.03,116.4-117.03h788.36c17.92,0,32.45,14.53,32.45,32.45Z"/>
    <path class="cls-1" d="M1723.57,1423.18v284.13c0,2.99,2.42,5.41,5.41,5.41h303.02c3.63,0,6.57,2.94,6.57,6.57v262.59c0,23.57-18.76,42.51-42.16,42.51h-872.19c-13.15,0-23.98-10.82-23.98-24.34v-116.9c0-94.1,75.61-170.42,168.81-170.42h122.21c13.15,0,23.98-10.82,23.98-24.35v-285.29c0-2.34-1.91-4.25-4.25-4.25h-306.5c-2.34,0-4.25-1.91-4.25-4.25v-273.02c0-18.94,15.28-34.39,34.03-34.39h889.2c8.31,0,15.08,6.76,15.08,15.26v149.16c0,81.35-65.36,147.23-145.8,147.23h-145.22c-13.34,0-23.98,10.82-23.98,24.35Z"/>
    <rect class="cls-5" x="6.1" y="1087.18" width="938.32" height="937.21" rx="148.77" ry="148.77"/>
    <path class="cls-3" d="M2040.79,681.55v106.09c0,96.61-77.8,174.87-173.93,174.87h-589.35c-96.13,0-173.93-78.26-173.93-174.87V59.54c0-19.52,15.82-35.34,35.34-35.34h119.53c40.54,0,77.79,13.91,107.32,37.28,34.36,26.85,58.29,66.64,65.05,111.85v437.93c0,19.41,15.74,35.15,35.15,35.15h539.66c19.41,0,35.15,15.74,35.15,35.15Z"/>
    <path class="cls-2" d="M500.09,1306.74c1.16-11.75,2.94-22.41,2.85-33.05-.03-3.5-4.34-7.68-7.67-10.32-25.46-20.22-35.81-52.72-26.19-83.77.65-2.1,1.9-4.02,3.07-6.42,8.87,2.71,15.11,5.48,15.27,16.95.2,14.16,4.36,27.95,15.12,38.49,2.2,2.16,4.85,3.86,6.71,5.32,7.35-16,14.49-30.98,21.13-46.18,3.94-9.03,9.1-10.98,17.22-4.97,2.83,2.1,6.28,3.35,9.37,4.95-4.22,17.81-9.76,35.08-12.09,52.78-2.11,16.05-3.95,33.34-.23,48.71,8.45,34.97,29.51,55.36,68.59,60.31,12.85,1.63,26.05.48,39.1.58,4.17.03,8.34,0,13.72,0,.7,15.18,1.46,30.08,2.05,44.99.42,10.48.3,20.99,1.01,31.45.41,6.06-.98,9.34-7.69,9.42-23.25.28-46.51.55-69.75,1.27-28.13.88-56.23,2.45-84.36,3.29-15.9.47-31.83.09-45.51.09-4.02-12.05-6.76-24.82-12.43-36.12-7.99-15.92-23.47-23.3-40.33-24.29-24.09-1.41-48.32-.36-74.46-.36,1.59,22.49.12,44.69,5.47,65.09,8.69,33.12,51.28,49.59,77.01,57.31,61.47,4.26,122.65,1.93,183.99-.98,31.39-1.49,63.5.65,94.48,5.93,19.45,3.31,39.5,10.32,55.02,25.96,11.15,11.24,25.55,18.86,33.83,33.52,14.5,25.69,19.4,53.26,18.24,82.15-.48,12.06-1.27,24.41-4.38,35.97-5.65,20.98-18.53,40.47-26.37,59.22-33.79,21.05-67.23,43-107.61,42.56-11.17-.12-17.38,5.12-25.62,18.39-90.73,25.64-89.28,19.59-112.85,7.88-.9,18.94-1.72,36.09-2.65,55.57,4.53-2.03,7.5-2.81,9.8-4.49,8.91-6.5,17.47-13.49,26.51-19.79,1.77-1.23,6.38-1.35,7.51-.07,15.79,17.94,31.2,36.22,48.28,56.26-14.9,3.6-4.77,4.18-35.27-7.5-39.6,9.95-51.05,14.27-62.24.1-12.04-15.24-28.01-26.1-46.52-33.5-.71-31.86-.44-63.54-.44-97.71h94.99c.03-.11.03-.1.06-.21-8.02-4.9-16.35-9.31-24.31-14.32-24.77-15.59-48.92-32.27-74.4-46.59-15.46-8.68-32.48-15.68-49.67-19.78-10.78-2.57-23.73-.19-34.75,3.15-29.4,8.9-50.99,27.97-66.46,55.87,12.92,2.91,23.37,5.79,32.75-6.28,11.35-14.61,26.97-24.18,45.61-26.46,9.13-1.12,19.14-.86,27.85,1.76,11.76,3.54,22.66,9.95,35.28,15.75-6.75,11.53-12.61,21.97-18.9,32.16-7.73,12.52-15.71,24.89-23.8,37.18-8.58,13.04-20.27,20.94-36.41,18.06-14.65-2.61-24.61,1.07-32.13,14.92-5.63,10.37-12.98,21.65-22.62,27.51-11.45,6.97-26.14,11.57-39.48,11.71-15.59.17-21.95,8.39-28.54,19.34-4.03,6.69-8.65,13.09-13.56,19.17-9.17,11.36-21.15,16.9-35.95,16.59-14.34-.31-28.69-.07-45.75-.07,9.26-14.94,17.06-27.61,24.93-40.22,13.69-21.93,27.15-44.01,41.22-65.7,18.87-29.1,38.14-57.96,57.42-86.8,8.16-12.21,16.63-24.23,25.21-36.16,23.51-32.69,54.93-55.12,94.23-62.29,19.65-3.59,41.05.21,61.36,2.9,27.78,3.68,52.18,16.74,76.36,30.48,19.2,10.91,39.1,21.24,59.84,28.62,31.91,11.35,62.77,2.38,85.01-27.76,7.59-21.75,5.58-45.13,5.19-68.03-.04-2.35-3.91-6.62-6.03-6.63-27.39-.22-54.79.64-82.17.3-61.71-.77-123.4-3.22-185.12-2.8-1.41,0-2.82.09-4.21.24-20.08,2.13-27.78,4.19-28.38-10.64-.67-16.51.16-34.4-12.57-47.33-7.53-7.66-16.84-14.68-26.69-18.63-9.78-3.92-6.61,7.18-9.58,11.65,4.06,2.65,7.55,4.98,11.08,7.23,18.2,11.6,19.39,29.62,18.74,48.58-.38,11.06-.09,22.16.27,33.22.15,4.76-.48,7.62-5.86,9.48-37.45,12.93-64.79,39.19-88.96,69.53-36.25.18-72.48.14-109.61.14,6.76-24.23,23.91-41.81,42.94-58.16,12.34,8.93,23.84,16.93,34.94,25.46,4.15,3.19,6.82,4,10.6-.46,15.55-18.38,31.5-36.41,46.95-54.87,2.08-2.48,2.61-6.63,2.96-10.09.53-5.21-.3-10.57.44-15.73,2.49-17.3-4.99-28.3-24.44-35.55-10.55-20.06-27.25-38.74-34.25-60.37-12.47-38.53-13.02-77.21,12.08-112.41,4.94-6.93,8.94-14.71,14.75-20.77,5.98-6.24,13.56-10.96,20.58-16.16,31.39-23.25,67.29-32.62,105.71-33.86,6.45-.21,12.93.64,19.4,1.01-.31-14.43-5.56-20.6-19.22-22.57-32.93-4.75-59.21-28.21-66.59-60.07-.85-3.69.14-11.11,1.56-11.45,6.24-1.51,13.56-4.04,17.89,4.55,7.74,15.33,19.55,26.18,36.32,31.03,3.03.88,6.22,1.22,9.99,1.94-1.68-14.21-3.23-27.35-4.79-40.49-.15-1.3-.52-2.61-.48-3.91.96-28.45-4.74-23.73,22.52-24.35,9.95,26.05,18.38,52.09,29.74,76.78,11.7,25.43,28.98,46.75,58.21,56.69ZM529.32,1370.5c-7.75,0-16.68,9.7-16.73,18.19-.08,12.17,9.68,21.95,21.76,21.8,9.72-.12,16.07-8.21,16.21-20.65.1-8.81-11.45-19.34-21.23-19.35Z"/>
    <path class="cls-2" d="M792.07,1903.31c-22.6,0-43.72,0-64.83-.02-1.63,0-3.3-.51-4.89-.31-14.85,1.82-26.88-.63-36.49-14.64-4.51-6.58-15.56-8.61-23.51-12.94-2.27-1.23-5.79-3.26-5.84-5-.43-17.57-.26-35.15-.26-53.35,16.84-1.28,32.43-2.75,48.06-3.3,2.04-.07,6.13,4.64,6.07,7.06-.42,15.25-1.74,30.48-2.78,45.71-.1,1.49-.33,2.97-.77,6.95,14.38-10.38,27.04-19.53,40.49-29.24,19.93,14.75,35.82,33.32,44.76,59.08Z"/>
    <path class="cls-2" d="M124.88,1613.33c8.04-25.15,24.29-42.53,43.13-58.7,11.97,8.62,23.71,16.66,34.95,25.35,4.6,3.56,7.42,3.91,11.38-.77,7.8-9.2,16.24-17.85,24.23-26.88,2.34-2.64,4.06-5.83,6.43-9.31,12.2,10.53,22.26,19.21,33.44,28.86-6.73,4.8-12.54,8.75-18.13,12.99-3.37,2.55-7.42,4.96-9.41,8.44-9.22,16.14-23.57,20.43-40.96,20.14-27.74-.46-55.5-.12-85.07-.12Z"/>
    <path class="cls-6" d="M2041.9,23.62v130.17c0,54.66-33.8,101.39-81.69,120.51-8.88,3.67-18.35,6.18-28,7.73-6.57.97-13.33,1.54-20.09,1.54-1.74,0-3.48,0-5.02-.19-5.02-.19-10.04-.58-14.87-1.35-9.66-1.55-19.12-4.06-28-7.73-47.9-19.12-81.69-65.86-81.69-120.51,0-3.09.19-6.18.39-9.08,4.44-65.66,58.13-118,124.18-120.51h9.08l125.73-.58Z"/>
    <path class="cls-4" d="M2041.9,395.29v129.78h-129.78c-6.76,0-13.52-.58-19.89-1.55-59.1-9.27-105.06-58.33-109.31-118.97-.19-3.09-.39-6.18-.39-9.27,0-54.85,33.99-101.39,81.69-120.32l.19-.19c13.32-5.41,27.62-8.5,42.68-8.88,1.54-.19,3.28-.19,5.02-.19,16.99,0,33.02,3.09,47.7,9.08.19,0,.19.19.39.19,47.9,18.93,81.69,65.66,81.69,120.32Z"/>
    <path class="cls-2" d="M1907.25,275.11c0,3.09-.19,6.18-.39,9.08-4.05,60.84-50.02,109.89-109.31,119.16-4.83.77-9.85,1.16-14.87,1.35,0,0-.19.19-.39,0-1.55.19-3.09.19-4.63.19-6.95,0-13.52-.58-20.09-1.55-56.78-8.88-101.59-54.66-108.54-112.4-.77-5.02-1.16-10.24-1.16-15.64v-.19c0-69.91,55.43-126.89,124.57-129.59h10.24c66.24,2.7,119.74,54.85,124.18,120.51.19,2.9.39,5.99.39,9.08Z"/>
    <path class="cls-6" d="M1782.56,404.2v.19c0,64.7-47.66,118.39-109.61,128.04-6.56.97-13.32,1.55-20.07,1.55h-129.67v-129.59c0-54.85,33.96-101.78,82.01-120.71.96-.39,2.12-.77,3.09-.97,12.35-4.83,26.05-7.53,39.94-7.92,1.54-.19,3.09-.19,4.63-.19,15.82,0,30.87,2.9,44.77,8.11.97.19,1.93.58,2.9.97,48.05,19.12,82.01,65.66,82.01,120.51Z"/>
    <path class="cls-4" d="M1782.16,160.88c0,56.01-35.54,103.52-84.98,121.86-7.92,2.9-16.22,5.02-24.72,6.37-6.57.97-13.33,1.55-20.09,1.55-1.16,0-2.32,0-3.48-.19-5.6,0-11.2-.58-16.41-1.35-8.5-1.35-16.8-3.48-24.72-6.37-49.64-18.35-85.17-65.86-85.66-121.86V30.87l126.41,1.11h8.88c63.92,1.81,116.07,50.48,123.8,113.06.58,5.21.97,10.43.97,15.84Z"/>
  </g>
</svg>