<?xml version="1.0" encoding="UTF-8"?>
<svg id="Layer_1" data-name="Layer 1" xmlns="http://www.w3.org/2000/svg" xmlns:xlink="http://www.w3.org/1999/xlink" viewBox="0 0 1027 361">
  <defs>
    <style>
      .cls-1 {
        fill: url(#linear-gradient-2);
      }

      .cls-2 {
        fill: #fff;
      }

      .cls-3 {
        fill: url(#linear-gradient-4);
      }

      .cls-4 {
        fill: #f1bcd4;
      }

      .cls-5 {
        fill: url(#linear-gradient-3);
      }

      .cls-6 {
        fill: #f18fbb;
      }

      .cls-7 {
        fill: url(#linear-gradient);
      }
    </style>
    <linearGradient id="linear-gradient" x1="42.36" y1="-25.17" x2="171.97" y2="173.67" gradientUnits="userSpaceOnUse">
      <stop offset="0" stop-color="#fdef7d"/>
      <stop offset="0" stop-color="#f1707b"/>
      <stop offset="1" stop-color="#f5968a"/>
    </linearGradient>
    <linearGradient id="linear-gradient-2" x1="160.32" y1="158.12" x2="352.62" y2="343.48" xlink:href="#linear-gradient"/>
    <linearGradient id="linear-gradient-3" x1="-14.39" y1="167.08" x2="143.01" y2="339.97" xlink:href="#linear-gradient"/>
    <linearGradient id="linear-gradient-4" x1="148.43" y1="-17.01" x2="325.46" y2="180.36" xlink:href="#linear-gradient"/>
  </defs>
  <g id="LOGO">
    <path class="cls-7" d="M170.43,5.96v44.29c0,3.24-2.61,5.85-5.82,5.89l-48.42.17c-1.22.03-2.2,1.01-2.2,2.23v104.97c0,3.24-2.62,5.89-5.82,5.89h-44.72c-3.24,0-5.89-2.65-5.89-5.89V58.33c0-1.21-.98-2.2-2.2-2.2H7.15c-3.2,0-5.82-2.65-5.82-5.89v-29.03C1.33,9.55,10.74.1,22.34.1h142.24c3.23,0,5.85,2.62,5.85,5.85Z"/>
    <path class="cls-1" d="M310.41,252.52v51.27c0,.54.44.98.98.98h54.67c.65,0,1.19.53,1.19,1.19v47.38c0,4.25-3.38,7.67-7.61,7.67h-157.37c-2.37,0-4.33-1.95-4.33-4.39v-21.09c0-16.98,13.64-30.75,30.46-30.75h22.05c2.37,0,4.33-1.95,4.33-4.39v-51.48c0-.42-.35-.77-.77-.77h-55.3c-.42,0-.77-.34-.77-.77v-49.26c0-3.42,2.76-6.21,6.14-6.21h160.44c1.5,0,2.72,1.22,2.72,2.75v26.91c0,14.68-11.79,26.57-26.31,26.57h-26.2c-2.41,0-4.33,1.95-4.33,4.39Z"/>
    <rect class="cls-5" x=".53" y="191.9" width="169.3" height="169.1" rx="26.84" ry="26.84"/>
    <path class="cls-3" d="M367.65,118.71v19.14c0,17.43-14.04,31.55-31.38,31.55h-106.34c-17.35,0-31.38-14.12-31.38-31.55V6.48c0-3.52,2.85-6.38,6.38-6.38h21.57c7.31,0,14.04,2.51,19.36,6.73,6.2,4.84,10.52,12.02,11.74,20.18v79.02c0,3.5,2.84,6.34,6.34,6.34h97.37c3.5,0,6.34,2.84,6.34,6.34Z"/>
    <path class="cls-2" d="M89.66,231.51c.21-2.12.53-4.04.51-5.96,0-.63-.78-1.39-1.38-1.86-4.59-3.65-6.46-9.51-4.73-15.12.12-.38.34-.73.55-1.16,1.6.49,2.73.99,2.76,3.06.04,2.55.79,5.04,2.73,6.94.4.39.87.7,1.21.96,1.33-2.89,2.61-5.59,3.81-8.33.71-1.63,1.64-1.98,3.11-.9.51.38,1.13.6,1.69.89-.76,3.21-1.76,6.33-2.18,9.52-.38,2.9-.71,6.02-.04,8.79,1.52,6.31,5.32,9.99,12.38,10.88,2.32.29,4.7.09,7.05.1.75,0,1.5,0,2.48,0,.13,2.74.26,5.43.37,8.12.07,1.89.05,3.79.18,5.67.07,1.09-.18,1.69-1.39,1.7-4.2.05-8.39.1-12.58.23-5.08.16-10.15.44-15.22.59-2.87.09-5.74.02-8.21.02-.73-2.17-1.22-4.48-2.24-6.52-1.44-2.87-4.24-4.2-7.28-4.38-4.35-.25-8.72-.06-13.44-.06.29,4.06.02,8.06.99,11.74,1.57,5.98,9.25,8.95,13.89,10.34,11.09.77,22.13.35,33.2-.18,5.66-.27,11.46.12,17.05,1.07,3.51.6,7.13,1.86,9.93,4.68,2.01,2.03,4.61,3.4,6.1,6.05,2.62,4.63,3.5,9.61,3.29,14.82-.09,2.18-.23,4.4-.79,6.49-1.02,3.79-3.34,7.3-4.76,10.68-6.1,3.8-12.13,7.76-19.42,7.68-2.02-.02-3.14.92-4.62,3.32-16.37,4.63-16.11,3.53-20.36,1.42-.16,3.42-.31,6.51-.48,10.03.82-.37,1.35-.51,1.77-.81,1.61-1.17,3.15-2.43,4.78-3.57.32-.22,1.15-.24,1.36-.01,2.85,3.24,5.63,6.53,8.71,10.15-2.69.65-.86.75-6.36-1.35-7.15,1.8-9.21,2.57-11.23.02-2.17-2.75-5.05-4.71-8.39-6.04-.13-5.75-.08-11.46-.08-17.63h17.14s0-.02.01-.04c-1.45-.88-2.95-1.68-4.39-2.58-4.47-2.81-8.83-5.82-13.42-8.41-2.79-1.57-5.86-2.83-8.96-3.57-1.95-.46-4.28-.03-6.27.57-5.3,1.61-9.2,5.05-11.99,10.08,2.33.53,4.22,1.04,5.91-1.13,2.05-2.64,4.87-4.36,8.23-4.77,1.65-.2,3.45-.15,5.03.32,2.12.64,4.09,1.8,6.37,2.84-1.22,2.08-2.28,3.96-3.41,5.8-1.4,2.26-2.83,4.49-4.29,6.71-1.55,2.35-3.66,3.78-6.57,3.26-2.64-.47-4.44.19-5.8,2.69-1.02,1.87-2.34,3.91-4.08,4.96-2.07,1.26-4.72,2.09-7.12,2.11-2.81.03-3.96,1.51-5.15,3.49-.73,1.21-1.56,2.36-2.45,3.46-1.65,2.05-3.82,3.05-6.49,2.99-2.59-.06-5.18-.01-8.26-.01,1.67-2.7,3.08-4.98,4.5-7.26,2.47-3.96,4.9-7.94,7.44-11.85,3.41-5.25,6.88-10.46,10.36-15.66,1.47-2.2,3-4.37,4.55-6.52,4.24-5.9,9.91-9.94,17-11.24,3.55-.65,7.41.04,11.07.52,5.01.66,9.41,3.02,13.78,5.5,3.46,1.97,7.06,3.83,10.8,5.16,5.76,2.05,11.33.43,15.34-5.01,1.37-3.92,1.01-8.14.94-12.27,0-.42-.71-1.19-1.09-1.2-4.94-.04-9.89.12-14.83.05-11.13-.14-22.27-.58-33.4-.51-.25,0-.51.02-.76.04-3.62.38-5.01.76-5.12-1.92-.12-2.98.03-6.21-2.27-8.54-1.36-1.38-3.04-2.65-4.82-3.36-1.76-.71-1.19,1.29-1.73,2.1.73.48,1.36.9,2,1.3,3.28,2.09,3.5,5.35,3.38,8.77-.07,2-.02,4,.05,5.99.03.86-.09,1.38-1.06,1.71-6.76,2.33-11.69,7.07-16.05,12.54-6.54.03-13.08.03-19.78.03,1.22-4.37,4.31-7.54,7.75-10.49,2.23,1.61,4.3,3.06,6.3,4.59.75.57,1.23.72,1.91-.08,2.81-3.32,5.68-6.57,8.47-9.9.37-.45.47-1.2.53-1.82.1-.94-.05-1.91.08-2.84.45-3.12-.9-5.11-4.41-6.41-1.9-3.62-4.92-6.99-6.18-10.89-2.25-6.95-2.35-13.93,2.18-20.28.89-1.25,1.61-2.65,2.66-3.75,1.08-1.13,2.45-1.98,3.71-2.92,5.66-4.19,12.14-5.89,19.07-6.11,1.16-.04,2.33.12,3.5.18-.06-2.6-1-3.72-3.47-4.07-5.94-.86-10.68-5.09-12.01-10.84-.15-.67.02-2,.28-2.07,1.13-.27,2.45-.73,3.23.82,1.4,2.77,3.53,4.72,6.55,5.6.55.16,1.12.22,1.8.35-.3-2.56-.58-4.93-.86-7.31-.03-.24-.09-.47-.09-.7.17-5.13-.85-4.28,4.06-4.39,1.8,4.7,3.32,9.4,5.37,13.85,2.11,4.59,5.23,8.43,10.5,10.23ZM94.93,243.02c-1.4,0-3.01,1.75-3.02,3.28-.01,2.2,1.75,3.96,3.93,3.93,1.75-.02,2.9-1.48,2.93-3.73.02-1.59-2.07-3.49-3.83-3.49Z"/>
    <path class="cls-2" d="M142.34,339.15c-4.08,0-7.89,0-11.7,0-.29,0-.6-.09-.88-.06-2.68.33-4.85-.11-6.58-2.64-.81-1.19-2.81-1.55-4.24-2.33-.41-.22-1.05-.59-1.05-.9-.08-3.17-.05-6.34-.05-9.63,3.04-.23,5.85-.5,8.67-.6.37-.01,1.11.84,1.09,1.27-.08,2.75-.31,5.5-.5,8.25-.02.27-.06.54-.14,1.25,2.59-1.87,4.88-3.52,7.3-5.28,3.6,2.66,6.46,6.01,8.08,10.66Z"/>
    <path class="cls-2" d="M21.96,286.83c1.45-4.54,4.38-7.67,7.78-10.59,2.16,1.55,4.28,3.01,6.31,4.57.83.64,1.34.71,2.05-.14,1.41-1.66,2.93-3.22,4.37-4.85.42-.48.73-1.05,1.16-1.68,2.2,1.9,4.02,3.47,6.03,5.21-1.21.87-2.26,1.58-3.27,2.34-.61.46-1.34.9-1.7,1.52-1.66,2.91-4.25,3.69-7.39,3.63-5.01-.08-10.01-.02-15.35-.02Z"/>
    <path class="cls-6" d="M367.85,0v23.49c0,9.86-6.1,18.29-14.74,21.74-1.6.66-3.31,1.12-5.05,1.39-1.19.17-2.4.28-3.62.28-.31,0-.63,0-.91-.03-.91-.03-1.81-.1-2.68-.24-1.74-.28-3.45-.73-5.05-1.39-8.64-3.45-14.74-11.88-14.74-21.74,0-.56.03-1.12.07-1.64.8-11.85,10.49-21.29,22.41-21.74h1.64l22.69-.1Z"/>
    <path class="cls-4" d="M367.85,67.06v23.42h-23.42c-1.22,0-2.44-.1-3.59-.28-10.66-1.67-18.96-10.52-19.72-21.47-.03-.56-.07-1.12-.07-1.67,0-9.9,6.13-18.29,14.74-21.71l.03-.03c2.4-.98,4.98-1.53,7.7-1.6.28-.03.59-.03.91-.03,3.07,0,5.96.56,8.61,1.64.03,0,.03.03.07.03,8.64,3.41,14.74,11.85,14.74,21.71Z"/>
    <path class="cls-2" d="M343.56,45.38c0,.56-.03,1.12-.07,1.64-.73,10.98-9.03,19.83-19.72,21.5-.87.14-1.78.21-2.68.24,0,0-.03.03-.07,0-.28.03-.56.03-.84.03-1.25,0-2.44-.1-3.62-.28-10.25-1.6-18.33-9.86-19.58-20.28-.14-.91-.21-1.85-.21-2.82v-.03c0-12.61,10-22.89,22.48-23.38h1.85c11.95.49,21.6,9.9,22.41,21.74.03.52.07,1.08.07,1.64Z"/>
    <path class="cls-6" d="M321.06,68.67v.03c0,11.67-8.6,21.36-19.78,23.1-1.18.17-2.4.28-3.62.28h-23.4v-23.38c0-9.9,6.13-18.36,14.8-21.78.17-.07.38-.14.56-.17,2.23-.87,4.7-1.36,7.21-1.43.28-.03.56-.03.84-.03,2.85,0,5.57.52,8.08,1.46.17.03.35.1.52.17,8.67,3.45,14.8,11.85,14.8,21.74Z"/>
    <path class="cls-4" d="M320.99,24.77c0,10.11-6.41,18.68-15.33,21.99-1.43.52-2.93.91-4.46,1.15-1.18.17-2.4.28-3.62.28-.21,0-.42,0-.63-.03-1.01,0-2.02-.1-2.96-.24-1.53-.24-3.03-.63-4.46-1.15-8.96-3.31-15.37-11.88-15.46-21.99V1.31l22.81.2h1.6c11.53.33,20.94,9.11,22.34,20.4.1.94.17,1.88.17,2.86Z"/>
  </g>
  <g>
    <path class="cls-2" d="M511.05,137.56c-9.48,0-17.97-2.1-25.47-6.3-7.5-4.2-13.41-9.99-17.73-17.37-4.32-7.38-6.48-15.75-6.48-25.11s2.16-17.85,6.48-25.11c4.32-7.26,10.2-12.99,17.64-17.19,7.44-4.2,15.96-6.3,25.56-6.3s17.97,2.07,25.47,6.21c7.5,4.14,13.38,9.87,17.64,17.19,4.26,7.32,6.39,15.72,6.39,25.2s-2.13,17.88-6.39,25.2c-4.26,7.32-10.14,13.08-17.64,17.28-7.5,4.2-15.99,6.3-25.47,6.3ZM511.05,122.44c6.12,0,11.61-1.38,16.47-4.14,4.86-2.76,8.67-6.69,11.43-11.79,2.76-5.1,4.14-11.01,4.14-17.73s-1.38-12.75-4.14-17.73c-2.76-4.98-6.57-8.85-11.43-11.61-4.86-2.76-10.35-4.14-16.47-4.14s-11.58,1.38-16.38,4.14c-4.8,2.76-8.64,6.63-11.52,11.61-2.88,4.98-4.32,10.89-4.32,17.73s1.44,12.63,4.32,17.73c2.88,5.1,6.72,9.03,11.52,11.79,4.8,2.76,10.26,4.14,16.38,4.14Z"/>
    <path class="cls-2" d="M586.83,136.48V41.08h16.56v25.74l-2.7-6.84c3.12-6.24,7.92-11.1,14.4-14.58,6.48-3.48,14.04-5.22,22.68-5.22,7.8,0,14.67,1.5,20.61,4.5,5.94,3,10.59,7.56,13.95,13.68,3.36,6.12,5.04,13.86,5.04,23.22v54.9h-17.28v-52.92c0-9.24-2.25-16.2-6.75-20.88-4.5-4.68-10.83-7.02-18.99-7.02-6.12,0-11.46,1.2-16.02,3.6-4.56,2.4-8.07,5.94-10.53,10.62-2.46,4.68-3.69,10.5-3.69,17.46v49.14h-17.28Z"/>
    <path class="cls-2" d="M711.75,136.48V2.92h17.28v133.56h-17.28Z"/>
    <path class="cls-2" d="M772.95,22.72c-3.36,0-6.15-1.08-8.37-3.24-2.22-2.16-3.33-4.8-3.33-7.92s1.11-5.94,3.33-8.1c2.22-2.16,5.01-3.24,8.37-3.24s6.15,1.05,8.37,3.15c2.22,2.1,3.33,4.71,3.33,7.83s-1.08,5.97-3.24,8.19c-2.16,2.22-4.98,3.33-8.46,3.33ZM764.31,136.48V41.08h17.28v95.4h-17.28Z"/>
    <path class="cls-2" d="M816.87,136.48V41.08h16.56v25.74l-2.7-6.84c3.12-6.24,7.92-11.1,14.4-14.58,6.48-3.48,14.04-5.22,22.68-5.22,7.8,0,14.67,1.5,20.61,4.5,5.94,3,10.59,7.56,13.95,13.68,3.36,6.12,5.04,13.86,5.04,23.22v54.9h-17.28v-52.92c0-9.24-2.25-16.2-6.75-20.88-4.5-4.68-10.83-7.02-18.99-7.02-6.12,0-11.46,1.2-16.02,3.6-4.56,2.4-8.07,5.94-10.53,10.62-2.46,4.68-3.69,10.5-3.69,17.46v49.14h-17.28Z"/>
    <path class="cls-2" d="M984.27,137.56c-10.2,0-19.17-2.1-26.91-6.3-7.74-4.2-13.74-9.96-18-17.28-4.26-7.32-6.39-15.72-6.39-25.2s2.07-17.88,6.21-25.2c4.14-7.32,9.84-13.05,17.1-17.19,7.26-4.14,15.45-6.21,24.57-6.21s17.4,2.04,24.48,6.12c7.08,4.08,12.63,9.81,16.65,17.19,4.02,7.38,6.03,15.99,6.03,25.83,0,.72-.03,1.56-.09,2.52-.06.96-.15,1.86-.27,2.7h-81.18v-12.42h72.18l-7.02,4.32c.12-6.12-1.14-11.58-3.78-16.38-2.64-4.8-6.27-8.55-10.89-11.25-4.62-2.7-9.99-4.05-16.11-4.05s-11.34,1.35-16.02,4.05c-4.68,2.7-8.34,6.48-10.98,11.34-2.64,4.86-3.96,10.41-3.96,16.65v2.88c0,6.36,1.47,12.03,4.41,17.01,2.94,4.98,7.05,8.85,12.33,11.61,5.28,2.76,11.34,4.14,18.18,4.14,5.64,0,10.77-.96,15.39-2.88,4.62-1.92,8.67-4.8,12.15-8.64l9.54,11.16c-4.32,5.04-9.69,8.88-16.11,11.52-6.42,2.64-13.59,3.96-21.51,3.96Z"/>
    <path class="cls-2" d="M477.95,360.48c-3.96,0-7.77-.48-11.43-1.44-3.66-.96-6.75-2.4-9.27-4.32l5.58-13.32c3.6,3,8.28,4.5,14.04,4.5,4.56,0,8.07-1.41,10.53-4.23,2.46-2.82,3.69-6.99,3.69-12.51v-100.08h17.28v99.72c0,9.72-2.61,17.43-7.83,23.13-5.22,5.7-12.75,8.55-22.59,8.55ZM499.73,210.72c-3.36,0-6.15-1.08-8.37-3.24-2.22-2.16-3.33-4.8-3.33-7.92s1.11-5.94,3.33-8.1c2.22-2.16,5.01-3.24,8.37-3.24s6.15,1.05,8.37,3.15c2.22,2.1,3.33,4.71,3.33,7.83s-1.08,5.97-3.24,8.19c-2.16,2.22-4.98,3.33-8.46,3.33Z"/>
    <path class="cls-2" d="M583.79,325.56c-8.16,0-15.33-1.5-21.51-4.5-6.18-3-10.98-7.59-14.4-13.77-3.42-6.18-5.13-13.95-5.13-23.31v-54.9h17.28v52.92c0,9.36,2.25,16.38,6.75,21.06s10.83,7.02,18.99,7.02c6,0,11.22-1.23,15.66-3.69,4.44-2.46,7.86-6.06,10.26-10.8,2.4-4.74,3.6-10.47,3.6-17.19v-49.32h17.28v95.4h-16.38v-25.74l2.7,6.84c-3.12,6.36-7.8,11.28-14.04,14.76-6.24,3.48-13.26,5.22-21.06,5.22Z"/>
    <path class="cls-2" d="M707.26,325.56c-9.24,0-17.49-2.04-24.75-6.12-7.26-4.08-12.99-9.78-17.19-17.1-4.2-7.32-6.3-15.84-6.3-25.56s2.1-18.21,6.3-25.47c4.2-7.26,9.93-12.93,17.19-17.01,7.26-4.08,15.51-6.12,24.75-6.12,8.04,0,15.3,1.8,21.78,5.4,6.48,3.6,11.67,9,15.57,16.2,3.9,7.2,5.85,16.2,5.85,27s-1.89,19.8-5.67,27-8.91,12.63-15.39,16.29c-6.48,3.66-13.86,5.49-22.14,5.49ZM708.71,310.44c6,0,11.43-1.38,16.29-4.14,4.86-2.76,8.7-6.69,11.52-11.79,2.82-5.1,4.23-11.01,4.23-17.73s-1.41-12.75-4.23-17.73c-2.82-4.98-6.66-8.85-11.52-11.61-4.86-2.76-10.29-4.14-16.29-4.14s-11.58,1.38-16.38,4.14c-4.8,2.76-8.64,6.63-11.52,11.61-2.88,4.98-4.32,10.89-4.32,17.73s1.44,12.63,4.32,17.73c2.88,5.1,6.72,9.03,11.52,11.79,4.8,2.76,10.26,4.14,16.38,4.14ZM741.29,324.48v-25.74l1.08-22.14-1.8-22.14v-63.54h17.28v133.56h-16.56Z"/>
    <path class="cls-2" d="M832.54,320.52c-9.24,0-17.49-1.95-24.75-5.85-7.26-3.9-13.02-9.33-17.28-16.29-4.26-6.96-6.39-15-6.39-24.12s2.13-17.31,6.39-24.21c4.26-6.9,10.02-12.27,17.28-16.11,7.26-3.84,15.51-5.76,24.75-5.76,8.16,0,15.6,1.65,22.32,4.95,6.72,3.3,12.09,8.37,16.11,15.21,4.02,6.84,6.03,15.48,6.03,25.92s-2.01,18.9-6.03,25.74c-4.02,6.84-9.39,11.97-16.11,15.39-6.72,3.42-14.16,5.13-22.32,5.13ZM834.7,360.48c-8.76,0-17.25-1.23-25.47-3.69-8.22-2.46-14.91-5.97-20.07-10.53l8.28-13.32c4.44,3.84,9.9,6.87,16.38,9.09,6.48,2.22,13.26,3.33,20.34,3.33,11.28,0,19.56-2.64,24.84-7.92,5.28-5.28,7.92-13.32,7.92-24.12v-20.16l1.8-18.9-.9-19.08v-26.1h16.38v82.44c0,16.8-4.2,29.16-12.6,37.08-8.4,7.92-20.7,11.88-36.9,11.88ZM834.52,305.4c6.36,0,12-1.32,16.92-3.96,4.92-2.64,8.79-6.3,11.61-10.98,2.82-4.68,4.23-10.08,4.23-16.2s-1.41-11.52-4.23-16.2c-2.82-4.68-6.69-8.31-11.61-10.89-4.92-2.58-10.56-3.87-16.92-3.87s-12.03,1.29-17.01,3.87c-4.98,2.58-8.88,6.21-11.7,10.89-2.82,4.68-4.23,10.08-4.23,16.2s1.41,11.52,4.23,16.2c2.82,4.68,6.72,8.34,11.7,10.98,4.98,2.64,10.65,3.96,17.01,3.96Z"/>
    <path class="cls-2" d="M961.96,325.56c-10.2,0-19.17-2.1-26.91-6.3-7.74-4.2-13.74-9.96-18-17.28-4.26-7.32-6.39-15.72-6.39-25.2s2.07-17.88,6.21-25.2c4.14-7.32,9.84-13.05,17.1-17.19,7.26-4.14,15.45-6.21,24.57-6.21s17.4,2.04,24.48,6.12c7.08,4.08,12.63,9.81,16.65,17.19,4.02,7.38,6.03,15.99,6.03,25.83,0,.72-.03,1.56-.09,2.52-.06.96-.15,1.86-.27,2.7h-81.18v-12.42h72.18l-7.02,4.32c.12-6.12-1.14-11.58-3.78-16.38-2.64-4.8-6.27-8.55-10.89-11.25-4.62-2.7-9.99-4.05-16.11-4.05s-11.34,1.35-16.02,4.05-8.34,6.48-10.98,11.34c-2.64,4.86-3.96,10.41-3.96,16.65v2.88c0,6.36,1.47,12.03,4.41,17.01,2.94,4.98,7.05,8.85,12.33,11.61,5.28,2.76,11.34,4.14,18.18,4.14,5.64,0,10.77-.96,15.39-2.88,4.62-1.92,8.67-4.8,12.15-8.64l9.54,11.16c-4.32,5.04-9.69,8.88-16.11,11.52-6.42,2.64-13.59,3.96-21.51,3.96Z"/>
  </g>
</svg>